<svg xmlns="http://www.w3.org/2000/svg" xmlns:xlink="http://www.w3.org/1999/xlink" viewBox="0 0 895.65 509.8"><defs><style>.cls-1,.cls-2{fill:none;}.cls-1{clip-rule:evenodd;}.cls-3{clip-path:url(#clip-path);}.cls-4{clip-path:url(#clip-path-2);}.cls-5{fill:#6f251f;}.cls-6{clip-path:url(#clip-path-3);}.cls-7{fill:#3b3e3d;}.cls-8{clip-path:url(#clip-path-5);}.cls-9{clip-path:url(#clip-path-7);}.cls-10{clip-path:url(#clip-path-9);}.cls-11{clip-path:url(#clip-path-11);}.cls-12{clip-path:url(#clip-path-13);}.cls-13{clip-path:url(#clip-path-15);}.cls-14{clip-path:url(#clip-path-17);}.cls-15{clip-path:url(#clip-path-19);}.cls-16{clip-path:url(#clip-path-20);}.cls-17{clip-path:url(#clip-path-21);}.cls-18{clip-path:url(#clip-path-22);}</style><clipPath id="clip-path" transform="translate(44.02 44.65)"><path class="cls-1" d="M302.24,168.61l-1,23.69q-33.71-1.73-61.06-1.74,1.38,18.48,1.4,41,20.86,0,47.33-1.1v22.39q-26.78-1-47.33-1,0,30.6,1,57.51h-29.8q1.38-32.64,1.4-73.59,0-39.34-1.4-67.14Z"/></clipPath><clipPath id="clip-path-2" transform="translate(44.02 44.65)"><rect class="cls-2" x="-335.89" y="-405.32" width="1587" height="1276"/></clipPath><clipPath id="clip-path-3" transform="translate(44.02 44.65)"><path class="cls-1" d="M389.12,206.68,382.85,232a43.35,43.35,0,0,0-16.23-3.25q-15.89,0-21,14.28,0,43.11.67,66.36H317.55q1.89-32.54,1.85-53.15A214.2,214.2,0,0,0,314,207.42l27.56-3c1.22,7.94,1.84,12.58,1.84,14h1.7q10-15.22,26.49-15.24a51,51,0,0,1,17.52,3.58"/></clipPath><clipPath id="clip-path-5" transform="translate(44.02 44.65)"><path class="cls-1" d="M462.2,286.77q-.66-14.61-.66-25.2-36.85,0-36.86,18.7c0,8.56,5.43,12.84,16.24,12.84q12.72,0,21.28-6.34m28.85,22.46-25.49.89a23,23,0,0,1-1.73-8.23h-1.41Q450.53,312,430.33,312c-9,0-16.49-2.51-22.43-7.49s-8.93-11.66-8.93-20q0-16.43,13.87-26.89t48.7-11.14a32.34,32.34,0,0,0,.22-3.69q0-11.67-5.61-15.38c-3.76-2.51-10.62-3.73-20.66-3.73a118.53,118.53,0,0,0-31.87,4.32L406,208.19q14.72-5.08,41.5-5.09,19.59,0,30.22,8.23t10.66,28.74c0,3-.15,8.52-.41,16.52s-.37,13.36-.37,16q0,22.35,3.47,36.63"/></clipPath><clipPath id="clip-path-7" transform="translate(44.02 44.65)"><path class="cls-1" d="M609.51,309.34H580.73q2.38-27.33,2.4-55.33c0-11.33-1.7-19-5-23s-8.44-6.05-15.31-6.05q-12.33,0-23.35,8.41.56,42.16.56,76H510.94q1.94-33.81,1.91-53.15a215.61,215.61,0,0,0-5.27-48.77l27.67-3,1.84,11.48h1.73a50.52,50.52,0,0,1,34-12.77q16.65,0,26.67,7.82c6.64,5.24,10,14.87,10,28.92,0,2.11-.11,4.87-.3,8.38S609,255.3,609,259q0,14.55.56,50.35"/></clipPath><clipPath id="clip-path-9" transform="translate(44.02 44.65)"><path class="cls-1" d="M732.72,309.34H699.63q0-4-16.41-27.07c-11-15.39-17.93-23.06-21-23.06h-1.41q0,22.14,1.33,50.13H633.49q1.32-50.46,1.29-80.3,0-41.28-3.32-71.64l30.69-1.74q-1.54,41.07-1.51,73.38,0,4.1.11,16h1.48q3,0,17.19-17.45t14.16-20.92h32.21q0,3.31-14.68,18.7t-23.8,21.18v1.62q10.08,7,27.74,31.95t17.67,29.21"/></clipPath><clipPath id="clip-path-11" transform="translate(44.02 44.65)"><path class="cls-1" d="M822.44,258.88c0-10.44-2.47-19.22-7.34-26.34S803.81,221.92,796,221.92q-11.46,0-18.63,9.92t-7.2,24.86q0,15.66,7.34,26.34t19.15,10.62c7.64,0,13.83-3.32,18.63-9.92s7.19-14.94,7.19-24.86m28.19-3.25q0,27.22-16.75,42.57a56.3,56.3,0,0,1-39.44,15.35q-21.63,0-37.07-14t-15.46-39.4q0-27.33,16.86-42.79a56.54,56.54,0,0,1,39.55-15.46q21.52,0,36.92,14.09t15.39,39.62"/></clipPath><clipPath id="clip-path-13" transform="translate(44.02 44.65)"><path class="cls-1" d="M263.34,390.93l-.5,13.33H212.07q.72-16.56.73-41.61,0-23-.73-38h17.16q-.72,13.89-.73,38,0,18.39-.79,29.2,16.86,0,35.63-.92"/></clipPath><clipPath id="clip-path-15" transform="translate(44.02 44.65)"><path class="cls-1" d="M304.22,391.49c-.25-5.5-.38-10.26-.38-14.24q-20.83,0-20.83,10.57,0,7.26,9.18,7.26a19.61,19.61,0,0,0,12-3.59m16.31,12.7-14.41.5a12.94,12.94,0,0,1-1-4.65h-.8q-6.72,5.73-18.14,5.74a19,19,0,0,1-12.68-4.24,14,14,0,0,1-5-11.28q0-9.28,7.84-15.2c5.24-4,14.42-6.05,27.53-6.3a17.22,17.22,0,0,0,.13-2.09q0-6.6-3.17-8.7c-2.13-1.41-6-2.1-11.68-2.1a66.94,66.94,0,0,0-18,2.44l1.33-11.24q8.32-2.88,23.47-2.88,11.07,0,17.08,4.65t6,16.25c0,1.71-.08,4.81-.23,9.34s-.21,7.55-.21,9.05q0,12.64,2,20.71"/></clipPath><clipPath id="clip-path-17" transform="translate(44.02 44.65)"><path class="cls-1" d="M374.43,374.31a22.63,22.63,0,0,0-3.88-13.23,12.31,12.31,0,0,0-10.68-5.59q-8.42,0-12.33,4.95,0,20.9.92,31.47a15.72,15.72,0,0,0,10,3q8.13,0,12.08-6a26,26,0,0,0,3.94-14.57m16.25-1.59A37.59,37.59,0,0,1,383.11,396q-7.58,10-20.84,10c-6.53,0-11.12-1.38-13.81-4.15h-.79l-1.23,2.38H332.07q.81-21.47.79-45.41a369.78,369.78,0,0,0-2-40.5l17.54-1q-.63,14.24-.63,32.2h.73c4.13-3.63,9.68-5.44,16.69-5.44,7.82,0,14,2.81,18.6,8.46a30.88,30.88,0,0,1,6.89,20.13"/></clipPath><clipPath id="clip-path-19" transform="translate(44.02 44.65)"><path class="cls-1" d="M30.94,191.45c-7.55-13.31-12.72-33.14-7.63-49.9C41.42,82,131.85,85.2,163.15,82.08,133.7,72.71,51.39,74.88,17,114.7c-59.7,69.19,52.83,140.38,101.8,185.84,7,6.5,16.32,14.18,22.63,22.78,21.08,28.75-1.3,77.29,15.52,115.11,2.89,6.49,13,22.22,18.13,25.57-3.72-6.83-7.88-20.76-10.14-30.94-4.42-19.85-2.43-56-3.26-78-1.35-35.74-4.62-40.25-34-67.75C99.33,260.64,48,221.52,30.94,191.45Z"/></clipPath><clipPath id="clip-path-20" transform="translate(44.02 44.65)"><rect class="cls-2" x="-548.3" y="-452.51" width="2170.57" height="1467.97"/></clipPath><clipPath id="clip-path-21" transform="translate(44.02 44.65)"><path class="cls-1" d="M346.35,127.84c-1.12,15.69-4.08,48.06-6.41,58.35,22.67-31,41.45-171.89-28-185.7C281-5.67,234.57,47.72,207.15,72c-19.48,17.24-36.16,32.52-61.57,41.65-9.54,3.42-20.84,6.16-30.11,6.85,65.32,16.56,114-54.92,154.8-86.58C341.07-21,349.11,89.31,346.35,127.84Z"/></clipPath><clipPath id="clip-path-22" transform="translate(44.02 44.65)"><rect class="cls-2" x="-517.25" y="-516.92" width="2047.64" height="1646.37"/></clipPath></defs><g id="Слой_2" data-name="Слой 2"><g id="Слой_2-2" data-name="Слой 2"><g class="cls-3"><g class="cls-4"><rect class="cls-5" x="255.77" y="212.26" width="91.5" height="142.73"/></g></g><g class="cls-6"><g class="cls-4"><rect class="cls-7" x="357.03" y="246.75" width="77.11" height="108.24"/></g></g><g class="cls-8"><g class="cls-4"><rect class="cls-7" x="441.99" y="246.75" width="94.08" height="110.93"/></g></g><g class="cls-9"><g class="cls-4"><rect class="cls-7" x="550.6" y="246.75" width="103.93" height="108.24"/></g></g><g class="cls-10"><g class="cls-4"><rect class="cls-7" x="674.48" y="199.31" width="103.26" height="155.68"/></g></g><g class="cls-11"><g class="cls-4"><rect class="cls-7" x="784.93" y="245.57" width="110.72" height="113.63"/></g></g><g class="cls-12"><g class="cls-4"><rect class="cls-5" x="255.09" y="368.33" width="53.27" height="81.57"/></g></g><g class="cls-13"><g class="cls-4"><rect class="cls-7" x="311.49" y="387.83" width="54.06" height="63.59"/></g></g><g class="cls-14"><g class="cls-4"><rect class="cls-7" x="373.88" y="361.01" width="61.82" height="90.66"/></g></g><g class="cls-15"><g class="cls-16"><rect class="cls-5" y="116.21" width="220.51" height="393.59"/></g></g><g class="cls-17"><g class="cls-18"><polygon class="cls-7" points="158.2 0 426.7 0 432.7 232.13 164.2 232.13 158.2 0"/><polygon class="cls-7" points="120.2 28 388.7 28 394.7 260.13 126.2 260.13 120.2 28"/></g></g></g></g></svg>